<svg xmlns="http://www.w3.org/2000/svg" width="33.941" height="33.941" viewBox="0 0 33.941 33.941"><defs><style>.a{fill:none;}.b{fill:#4060af;fill-rule:evenodd;}</style></defs><g transform="translate(16.971) rotate(45)"><rect class="a" width="24" height="24"/><g transform="translate(6.316 1.694)"><path class="b" d="M14.318,9.33V4.094h.847a.966.966,0,0,0,.847-1.047h0A.966.966,0,0,0,15.165,2H6.694a.966.966,0,0,0-.847,1.047h0a.966.966,0,0,0,.847,1.047h.847V9.33A2.885,2.885,0,0,1,5,12.471H5v2.094h5.057v7.33l.847,1.047.847-1.047v-7.33h5.108V12.471h0A2.885,2.885,0,0,1,14.318,9.33Z" transform="translate(-5 -2)"/></g></g></svg>